<?xml version="1.0" encoding="UTF-8"?>
<svg xmlns="http://www.w3.org/2000/svg" xmlns:xlink="http://www.w3.org/1999/xlink" width="12px" height="12px" viewBox="0 0 12 12" version="1.1">
<g id="surface1">
<path style=" stroke:none;fill-rule:nonzero;fill:rgb(1.176471%,0.392157%,1.568627%);fill-opacity:1;" d="M 10.234375 1.75 C 7.882812 -0.589844 4.085938 -0.582031 1.75 1.765625 C -0.589844 4.117188 -0.582031 7.914062 1.765625 10.25 C 4.117188 12.589844 7.914062 12.582031 10.253906 10.234375 C 12.589844 7.882812 12.582031 4.085938 10.234375 1.75 Z M 10.234375 1.75 "/>
<path style=" stroke:none;fill-rule:nonzero;fill:rgb(1.176471%,0.392157%,1.568627%);fill-opacity:1;" d="M 4.988281 8.972656 L 4.324219 10.929688 C 5.289062 11.242188 6.328125 11.261719 7.300781 10.992188 L 7.054688 8.957031 C 6.386719 9.195312 5.65625 9.199219 4.988281 8.972656 Z M 3.050781 4.925781 L 0.929688 4.605469 C 0.652344 5.605469 0.679688 6.675781 1.015625 7.664062 L 3.074219 7.148438 C 2.796875 6.4375 2.789062 5.644531 3.050781 4.925781 Z M 10.800781 4.257812 L 8.9375 4.886719 C 9.238281 5.675781 9.207031 6.5625 8.84375 7.335938 L 10.851562 7.585938 C 11.199219 6.503906 11.183594 5.328125 10.800781 4.257812 Z M 4.277344 1.082031 L 4.660156 3.160156 C 5.421875 2.800781 6.296875 2.765625 7.082031 3.050781 L 7.675781 1.121094 C 6.582031 0.730469 5.378906 0.714844 4.277344 1.082031 Z M 4.277344 1.082031 "/>
<path style=" stroke:none;fill-rule:nonzero;fill:rgb(1.176471%,0.392157%,1.568627%);fill-opacity:1;" d="M 8.296875 6 C 8.296875 7.269531 7.269531 8.296875 6 8.296875 C 4.730469 8.296875 3.703125 7.269531 3.703125 6 C 3.703125 4.730469 4.730469 3.703125 6 3.703125 C 7.269531 3.703125 8.296875 4.730469 8.296875 6 Z M 8.296875 6 "/>
</g>
</svg>
