<?xml version="1.0" encoding="UTF-8"?>
<svg xmlns="http://www.w3.org/2000/svg" xmlns:xlink="http://www.w3.org/1999/xlink" width="32px" height="32px" viewBox="0 0 32 32" version="1.1">
<g id="surface1">
<path style=" stroke:none;fill-rule:nonzero;fill:rgb(0%,0%,0%);fill-opacity:1;" d="M 1.429688 20.597656 L 11.289062 30.457031 C 17.285156 25.808594 9.554688 14.152344 1.429688 20.597656 Z M 11.039062 16.199219 L 15.800781 20.964844 C 16.109375 21.269531 16.613281 21.269531 16.921875 20.964844 L 23.222656 14.660156 C 24.839844 13.042969 24.839844 10.394531 23.222656 8.777344 C 21.605469 7.160156 18.957031 7.160156 17.339844 8.777344 L 11.039062 15.082031 C 10.730469 15.386719 10.730469 15.890625 11.039062 16.199219 Z M 6.378906 27.300781 L 5.292969 28.386719 C 4.910156 28.769531 4.28125 28.769531 3.894531 28.386719 C 3.507812 27.996094 3.507812 27.371094 3.894531 26.984375 L 4.980469 25.898438 L 0.550781 21.472656 L 0.554688 21.46875 C 0.519531 21.433594 0.488281 21.402344 0.460938 21.363281 C 0.0390625 20.832031 0.128906 20.054688 0.660156 19.628906 C 4.085938 16.914062 7.496094 17 10.109375 18.46875 C 10.589844 18.738281 11.042969 19.058594 11.464844 19.417969 L 11.980469 18.898438 L 10.160156 17.078125 C 9.765625 16.683594 9.566406 16.160156 9.566406 15.644531 C 9.566406 15.125 9.765625 14.605469 10.160156 14.207031 L 11.703125 12.667969 L 10.371094 11.335938 L 9.394531 12.316406 C 9.074219 12.632812 8.65625 12.792969 8.238281 12.792969 C 7.824219 12.792969 7.40625 12.636719 7.085938 12.316406 L 7.082031 12.3125 L 7.082031 12.316406 L 0.917969 6.152344 C 0.601562 5.832031 0.441406 5.414062 0.441406 4.996094 C 0.441406 4.582031 0.601562 4.164062 0.921875 3.839844 L 0.917969 3.839844 L 4.28125 0.480469 C 4.324219 0.4375 4.367188 0.398438 4.414062 0.363281 C 4.710938 0.121094 5.074219 0 5.433594 0 C 5.847656 0 6.265625 0.160156 6.585938 0.480469 L 6.589844 0.480469 L 12.753906 6.640625 C 13.070312 6.957031 13.230469 7.378906 13.230469 7.796875 C 13.230469 8.214844 13.074219 8.632812 12.753906 8.953125 L 11.769531 9.933594 L 13.101562 11.265625 L 16.464844 7.902344 C 17.511719 6.855469 18.898438 6.328125 20.28125 6.328125 C 21.664062 6.328125 23.046875 6.855469 24.097656 7.902344 C 25.148438 8.953125 25.675781 10.339844 25.675781 11.722656 C 25.675781 13.105469 25.148438 14.488281 24.097656 15.539062 L 20.738281 18.894531 L 22.066406 20.226562 L 23.050781 19.246094 C 23.367188 18.929688 23.785156 18.769531 24.207031 18.769531 C 24.621094 18.769531 25.042969 18.925781 25.363281 19.246094 L 31.523438 25.410156 C 31.839844 25.726562 32.003906 26.144531 32.003906 26.566406 C 32.003906 26.980469 31.84375 27.402344 31.523438 27.722656 L 28.160156 31.082031 C 27.84375 31.402344 27.425781 31.5625 27.003906 31.5625 C 26.589844 31.5625 26.167969 31.402344 25.847656 31.082031 L 19.6875 24.917969 C 19.371094 24.601562 19.207031 24.183594 19.207031 23.761719 C 19.207031 23.347656 19.367188 22.933594 19.6875 22.613281 L 19.691406 22.609375 L 19.6875 22.605469 L 20.667969 21.625 L 19.335938 20.292969 L 17.792969 21.835938 C 17.398438 22.230469 16.878906 22.429688 16.359375 22.429688 C 15.839844 22.429688 15.320312 22.230469 14.925781 21.835938 L 13.382812 20.292969 L 12.824219 20.855469 C 13.464844 21.703125 13.960938 22.660156 14.273438 23.652344 C 15.125 26.363281 14.636719 29.359375 12.128906 31.363281 C 11.644531 31.816406 10.886719 31.800781 10.414062 31.332031 Z M 0.0351562 27.855469 C -0.105469 27.363281 0.183594 26.847656 0.675781 26.710938 C 1.167969 26.574219 1.683594 26.859375 1.820312 27.355469 C 2.082031 28.273438 2.441406 28.96875 2.902344 29.433594 C 3.320312 29.855469 3.839844 30.09375 4.472656 30.144531 C 4.984375 30.1875 5.363281 30.636719 5.324219 31.148438 C 5.28125 31.660156 4.832031 32.039062 4.320312 31.996094 C 3.234375 31.902344 2.328125 31.480469 1.589844 30.738281 C 0.898438 30.046875 0.382812 29.082031 0.0351562 27.855469 Z M 0.0351562 27.855469 "/>
</g>
</svg>
